<?xml version="1.0" encoding="utf-8"?>
<!-- Generator: Adobe Illustrator 25.0.0, SVG Export Plug-In . SVG Version: 6.00 Build 0)  -->
<svg version="1.1" id="Layer_1" xmlns="http://www.w3.org/2000/svg" xmlns:xlink="http://www.w3.org/1999/xlink" x="0px" y="0px"
	 viewBox="0 0 1280 1024" style="enable-background:new 0 0 1280 1024;" xml:space="preserve">
<style type="text/css">
	.st0{fill:none;stroke:#000000;stroke-linecap:round;stroke-linejoin:round;stroke-miterlimit:10;}
	.st1{fill:#FFFFFF;stroke:#000000;stroke-linecap:round;stroke-linejoin:round;stroke-miterlimit:10;}
</style>
<g>
	<g>
		<line class="st0" x1="651.83" y1="280.8" x2="664.31" y2="280.8"/>
		<g>
			<rect x="323.83" y="663.76" class="st0" width="643.08" height="38.97"/>
			<rect x="788.71" y="431.83" class="st0" width="139.1" height="207.72"/>
			<rect x="493.93" y="527.49" class="st0" width="294.78" height="136.27"/>
			<path class="st0" d="M773.38,507.63H493.93v-87.66h279.45V507.63z"/>
			
				<rect x="354.51" y="431.83" transform="matrix(-1 -1.224647e-16 1.224647e-16 -1 848.4395 1071.376)" class="st0" width="139.42" height="207.72"/>
			<rect x="587.88" y="419.97" class="st0" width="14.88" height="107.52"/>
			<rect x="675.18" y="419.97" class="st0" width="14.88" height="107.52"/>
			<rect x="773.38" y="419.97" class="st0" width="14.88" height="243.79"/>
			<rect x="493.93" y="419.97" class="st0" width="13.7" height="243.79"/>
			<rect x="596.79" y="549.76" class="st0" width="83.84" height="114"/>
			<path class="st0" d="M631.31,611.32c0,1.11-0.9,2-2,2c-1.11,0-2-0.9-2-2c0-1.1,0.9-2,2-2
				C630.42,609.32,631.31,610.21,631.31,611.32z"/>
			<path class="st0" d="M649.24,611.32c0,1.11-0.9,2-2,2s-2-0.9-2-2c0-1.1,0.9-2,2-2S649.24,610.21,649.24,611.32z"/>
			<g>
				<g>
					
						<rect x="383.43" y="476.1" transform="matrix(-1 -1.224647e-16 1.224647e-16 -1 791.0588 997.923)" class="st0" width="24.2" height="45.73"/>
					
						<rect x="378.77" y="469.4" transform="matrix(-1 -1.224647e-16 1.224647e-16 -1 791.0588 945.4914)" class="st0" width="33.52" height="6.7"/>
					<g>
						
							<rect x="408.88" y="481.4" transform="matrix(-1 -1.224647e-16 1.224647e-16 -1 828.3313 1001.3621)" class="st0" width="10.57" height="38.56"/>
					</g>
					<g>
						
							<rect x="371.89" y="481.4" transform="matrix(-1 -1.224647e-16 1.224647e-16 -1 754.3431 1001.3621)" class="st0" width="10.57" height="38.56"/>
					</g>
				</g>
				<line class="st0" x1="395.53" y1="477.05" x2="395.53" y2="521.83"/>
				<line class="st0" x1="383.43" y1="499.44" x2="407.63" y2="499.44"/>
				<line class="st0" x1="371.89" y1="499.44" x2="381" y2="499.44"/>
				<line class="st0" x1="409.61" y1="499.44" x2="418.72" y2="499.44"/>
			</g>
			<g>
				<g>
					
						<rect x="444.49" y="476.1" transform="matrix(-1 -1.224647e-16 1.224647e-16 -1 913.1743 997.923)" class="st0" width="24.2" height="45.73"/>
					
						<rect x="439.83" y="469.4" transform="matrix(-1 -1.224647e-16 1.224647e-16 -1 913.1743 945.4914)" class="st0" width="33.52" height="6.7"/>
					<g>
						
							<rect x="469.94" y="481.4" transform="matrix(-1 -1.224647e-16 1.224647e-16 -1 950.4468 1001.3621)" class="st0" width="10.57" height="38.56"/>
					</g>
					<g>
						
							<rect x="432.94" y="481.4" transform="matrix(-1 -1.224647e-16 1.224647e-16 -1 876.4586 1001.3621)" class="st0" width="10.57" height="38.56"/>
					</g>
				</g>
				<line class="st0" x1="456.59" y1="477.05" x2="456.59" y2="521.83"/>
				<line class="st0" x1="444.49" y1="499.44" x2="468.69" y2="499.44"/>
				<line class="st0" x1="432.94" y1="499.44" x2="442.06" y2="499.44"/>
				<line class="st0" x1="470.67" y1="499.44" x2="479.78" y2="499.44"/>
			</g>
			<g>
				<g>
					
						<rect x="383.43" y="563.82" transform="matrix(-1 -1.224647e-16 1.224647e-16 -1 791.0588 1173.3624)" class="st0" width="24.2" height="45.73"/>
					
						<rect x="378.77" y="557.11" transform="matrix(-1 -1.224647e-16 1.224647e-16 -1 791.0588 1120.9309)" class="st0" width="33.52" height="6.7"/>
					<g>
						
							<rect x="408.88" y="569.12" transform="matrix(-1 -1.224647e-16 1.224647e-16 -1 828.3313 1176.8009)" class="st0" width="10.57" height="38.56"/>
					</g>
					<g>
						
							<rect x="371.89" y="569.12" transform="matrix(-1 -1.224647e-16 1.224647e-16 -1 754.3431 1176.8009)" class="st0" width="10.57" height="38.56"/>
					</g>
				</g>
				<line class="st0" x1="395.53" y1="564.77" x2="395.53" y2="609.55"/>
				<line class="st0" x1="383.43" y1="587.16" x2="407.63" y2="587.16"/>
				<line class="st0" x1="371.89" y1="587.16" x2="381" y2="587.16"/>
				<line class="st0" x1="409.61" y1="587.16" x2="418.72" y2="587.16"/>
			</g>
			<g>
				<g>
					
						<rect x="444.49" y="563.82" transform="matrix(-1 -1.224647e-16 1.224647e-16 -1 913.1743 1173.3624)" class="st0" width="24.2" height="45.73"/>
					
						<rect x="439.83" y="557.11" transform="matrix(-1 -1.224647e-16 1.224647e-16 -1 913.1743 1120.9309)" class="st0" width="33.52" height="6.7"/>
					<g>
						
							<rect x="469.94" y="569.12" transform="matrix(-1 -1.224647e-16 1.224647e-16 -1 950.4468 1176.8009)" class="st0" width="10.57" height="38.56"/>
					</g>
					<g>
						
							<rect x="432.94" y="569.12" transform="matrix(-1 -1.224647e-16 1.224647e-16 -1 876.4586 1176.8009)" class="st0" width="10.57" height="38.56"/>
					</g>
				</g>
				<line class="st0" x1="456.59" y1="564.77" x2="456.59" y2="609.55"/>
				<line class="st0" x1="444.49" y1="587.16" x2="468.69" y2="587.16"/>
				<line class="st0" x1="432.94" y1="587.16" x2="442.06" y2="587.16"/>
				<line class="st0" x1="470.67" y1="587.16" x2="479.78" y2="587.16"/>
			</g>
			<g>
				<g>
					
						<rect x="812.39" y="476.1" transform="matrix(-1 -1.224647e-16 1.224647e-16 -1 1648.9733 997.923)" class="st0" width="24.2" height="45.73"/>
					
						<rect x="807.73" y="469.4" transform="matrix(-1 -1.224647e-16 1.224647e-16 -1 1648.9733 945.4914)" class="st0" width="33.52" height="6.7"/>
					<g>
						
							<rect x="837.84" y="481.4" transform="matrix(-1 -1.224647e-16 1.224647e-16 -1 1686.2457 1001.3621)" class="st0" width="10.57" height="38.56"/>
					</g>
					<g>
						
							<rect x="800.84" y="481.4" transform="matrix(-1 -1.224647e-16 1.224647e-16 -1 1612.2576 1001.3621)" class="st0" width="10.57" height="38.56"/>
					</g>
				</g>
				<line class="st0" x1="824.49" y1="477.05" x2="824.49" y2="521.83"/>
				<line class="st0" x1="812.39" y1="499.44" x2="836.59" y2="499.44"/>
				<line class="st0" x1="800.84" y1="499.44" x2="809.96" y2="499.44"/>
				<line class="st0" x1="838.57" y1="499.44" x2="847.68" y2="499.44"/>
			</g>
			<g>
				<g>
					
						<rect x="719.48" y="444.22" transform="matrix(-1 -1.224647e-16 1.224647e-16 -1 1463.1547 934.1647)" class="st0" width="24.2" height="45.73"/>
					
						<rect x="714.82" y="437.52" transform="matrix(-1 -1.224647e-16 1.224647e-16 -1 1463.1545 881.7331)" class="st0" width="33.52" height="6.7"/>
					<g>
						
							<rect x="744.93" y="449.52" transform="matrix(-1 -1.224647e-16 1.224647e-16 -1 1500.4271 937.6038)" class="st0" width="10.57" height="38.56"/>
					</g>
					<g>
						
							<rect x="707.93" y="449.52" transform="matrix(-1 -1.224647e-16 1.224647e-16 -1 1426.439 937.6038)" class="st0" width="10.57" height="38.56"/>
					</g>
				</g>
				<line class="st0" x1="731.58" y1="445.17" x2="731.58" y2="489.95"/>
				<line class="st0" x1="719.48" y1="467.56" x2="743.68" y2="467.56"/>
				<line class="st0" x1="707.93" y1="467.56" x2="717.05" y2="467.56"/>
				<line class="st0" x1="745.66" y1="467.56" x2="754.77" y2="467.56"/>
			</g>
			<g>
				<g>
					
						<rect x="535.52" y="444.22" transform="matrix(-1 -1.224647e-16 1.224647e-16 -1 1095.2352 934.1647)" class="st0" width="24.2" height="45.73"/>
					
						<rect x="530.86" y="437.52" transform="matrix(-1 -1.224647e-16 1.224647e-16 -1 1095.2352 881.7331)" class="st0" width="33.52" height="6.7"/>
					<g>
						
							<rect x="560.97" y="449.52" transform="matrix(-1 -1.224647e-16 1.224647e-16 -1 1132.5078 937.6038)" class="st0" width="10.57" height="38.56"/>
					</g>
					<g>
						
							<rect x="523.97" y="449.52" transform="matrix(-1 -1.224647e-16 1.224647e-16 -1 1058.5197 937.6038)" class="st0" width="10.57" height="38.56"/>
					</g>
				</g>
				<line class="st0" x1="547.62" y1="445.17" x2="547.62" y2="489.95"/>
				<line class="st0" x1="535.52" y1="467.56" x2="559.72" y2="467.56"/>
				<line class="st0" x1="523.97" y1="467.56" x2="533.09" y2="467.56"/>
				<line class="st0" x1="561.7" y1="467.56" x2="570.81" y2="467.56"/>
			</g>
			<g>
				<g>
					
						<rect x="873.44" y="476.1" transform="matrix(-1 -1.224647e-16 1.224647e-16 -1 1771.0887 997.923)" class="st0" width="24.2" height="45.73"/>
					
						<rect x="868.79" y="469.4" transform="matrix(-1 -1.224647e-16 1.224647e-16 -1 1771.0887 945.4914)" class="st0" width="33.52" height="6.7"/>
					<g>
						
							<rect x="898.9" y="481.4" transform="matrix(-1 -1.224647e-16 1.224647e-16 -1 1808.3613 1001.3621)" class="st0" width="10.57" height="38.56"/>
					</g>
					<g>
						
							<rect x="861.9" y="481.4" transform="matrix(-1 -1.224647e-16 1.224647e-16 -1 1734.373 1001.3621)" class="st0" width="10.57" height="38.56"/>
					</g>
				</g>
				<line class="st0" x1="885.54" y1="477.05" x2="885.54" y2="521.83"/>
				<line class="st0" x1="873.44" y1="499.44" x2="897.64" y2="499.44"/>
				<line class="st0" x1="861.9" y1="499.44" x2="871.01" y2="499.44"/>
				<line class="st0" x1="899.62" y1="499.44" x2="908.74" y2="499.44"/>
			</g>
			<g>
				<g>
					
						<rect x="812.39" y="563.82" transform="matrix(-1 -1.224647e-16 1.224647e-16 -1 1648.9733 1173.3624)" class="st0" width="24.2" height="45.73"/>
					
						<rect x="807.73" y="557.11" transform="matrix(-1 -1.224647e-16 1.224647e-16 -1 1648.9733 1120.9309)" class="st0" width="33.52" height="6.7"/>
					<g>
						
							<rect x="837.84" y="569.12" transform="matrix(-1 -1.224647e-16 1.224647e-16 -1 1686.2457 1176.8009)" class="st0" width="10.57" height="38.56"/>
					</g>
					<g>
						
							<rect x="800.84" y="569.12" transform="matrix(-1 -1.224647e-16 1.224647e-16 -1 1612.2576 1176.8009)" class="st0" width="10.57" height="38.56"/>
					</g>
				</g>
				<line class="st0" x1="824.49" y1="564.77" x2="824.49" y2="609.55"/>
				<line class="st0" x1="812.39" y1="587.16" x2="836.59" y2="587.16"/>
				<line class="st0" x1="800.84" y1="587.16" x2="809.96" y2="587.16"/>
				<line class="st0" x1="838.57" y1="587.16" x2="847.68" y2="587.16"/>
			</g>
			<g>
				<g>
					
						<rect x="873.44" y="563.82" transform="matrix(-1 -1.224647e-16 1.224647e-16 -1 1771.0887 1173.3624)" class="st0" width="24.2" height="45.73"/>
					
						<rect x="868.79" y="557.11" transform="matrix(-1 -1.224647e-16 1.224647e-16 -1 1771.0887 1120.9309)" class="st0" width="33.52" height="6.7"/>
					<g>
						
							<rect x="898.9" y="569.12" transform="matrix(-1 -1.224647e-16 1.224647e-16 -1 1808.3613 1176.8009)" class="st0" width="10.57" height="38.56"/>
					</g>
					<g>
						
							<rect x="861.9" y="569.12" transform="matrix(-1 -1.224647e-16 1.224647e-16 -1 1734.373 1176.8009)" class="st0" width="10.57" height="38.56"/>
					</g>
				</g>
				<line class="st0" x1="885.54" y1="564.77" x2="885.54" y2="609.55"/>
				<line class="st0" x1="873.44" y1="587.16" x2="897.64" y2="587.16"/>
				<line class="st0" x1="861.9" y1="587.16" x2="871.01" y2="587.16"/>
				<line class="st0" x1="899.62" y1="587.16" x2="908.74" y2="587.16"/>
			</g>
			<line class="st0" x1="323.83" y1="663.76" x2="354.51" y2="639.55"/>
			<line class="st0" x1="966.91" y1="663.76" x2="927.81" y2="639.55"/>
			<g>
				<g>
					<g>
						<g>
							<rect x="597.55" y="359.1" class="st0" width="24.2" height="31.02"/>
							<rect x="597.55" y="360.05" class="st0" width="24.2" height="29.75"/>
						</g>
						<g>
							<rect x="660.46" y="359.1" class="st0" width="24.2" height="31.02"/>
						</g>
					</g>
				</g>
				<line class="st0" x1="609.65" y1="360.05" x2="609.65" y2="390.23"/>
				<line class="st0" x1="597.55" y1="374.61" x2="621.75" y2="374.61"/>
				<line class="st0" x1="672.56" y1="360.05" x2="672.56" y2="390.23"/>
				<line class="st0" x1="660.46" y1="374.61" x2="684.66" y2="374.61"/>
				<g>
					<path class="st0" d="M660.46,390.23h-38.72v-31.68c0-10.69,8.67-19.36,19.36-19.36l0,0c10.69,0,19.36,8.67,19.36,19.36V390.23z
						"/>
					<line class="st0" x1="641.1" y1="339.19" x2="641.1" y2="389.8"/>
					<line class="st0" x1="621.75" y1="374.9" x2="659.93" y2="374.9"/>
					<line class="st0" x1="621.75" y1="358.68" x2="659.93" y2="358.68"/>
				</g>
			</g>
			<g>
				<g>
					<path class="st0" d="M836.37,394.18h-23.5v-19.23c0-6.49,5.26-11.75,11.75-11.75l0,0c6.49,0,11.75,5.26,11.75,11.75V394.18z"/>
					<line class="st0" x1="824.61" y1="363.2" x2="824.61" y2="393.92"/>
					<line class="st0" x1="812.86" y1="382.65" x2="836.04" y2="382.65"/>
					<line class="st0" x1="812.86" y1="375.03" x2="836.04" y2="375.03"/>
				</g>
			</g>
			<g>
				<g>
					<path class="st0" d="M468.47,394.18h-23.5v-19.23c0-6.49,5.26-11.75,11.75-11.75l0,0c6.49,0,11.75,5.26,11.75,11.75V394.18z"/>
					<line class="st0" x1="456.71" y1="363.2" x2="456.71" y2="393.92"/>
					<line class="st0" x1="444.96" y1="382.65" x2="468.14" y2="382.65"/>
					<line class="st0" x1="444.96" y1="375.03" x2="468.14" y2="375.03"/>
				</g>
			</g>
			<g>
				<path class="st0" d="M658.07,488.55h-38.72v-31.68c0-10.69,8.67-19.36,19.36-19.36l0,0c10.69,0,19.36,8.67,19.36,19.36V488.55z"
					/>
				<line class="st0" x1="638.71" y1="437.52" x2="638.71" y2="488.12"/>
				<line class="st0" x1="619.35" y1="469.55" x2="657.53" y2="469.55"/>
				<line class="st0" x1="619.35" y1="457.01" x2="657.53" y2="457.01"/>
			</g>
			<line class="st0" x1="638.44" y1="549.76" x2="638.44" y2="663.76"/>
			<line class="st0" x1="605.76" y1="538.19" x2="670.2" y2="538.19"/>
			<g>
				<rect x="528.53" y="554.83" class="st0" width="27.03" height="79.69"/>
				<path class="st0" d="M542.05,554.83"/>
				<line class="st0" x1="528.53" y1="595.63" x2="555.56" y2="595.63"/>
				<line class="st0" x1="542.05" y1="554.83" x2="542.05" y2="634.53"/>
			</g>
			<g>
				<rect x="721.16" y="554.83" class="st0" width="27.03" height="79.69"/>
				<path class="st0" d="M734.67,554.83"/>
				<line class="st0" x1="721.16" y1="595.63" x2="748.18" y2="595.63"/>
				<line class="st0" x1="734.67" y1="554.83" x2="734.67" y2="634.53"/>
			</g>
			<line class="st0" x1="345.99" y1="651.39" x2="345.99" y2="704.52"/>
			<line class="st0" x1="323.83" y1="651.39" x2="323.83" y2="704.52"/>
			<line class="st0" x1="344.88" y1="702.73" x2="280.71" y2="702.73"/>
			<line class="st0" x1="1005.19" y1="702.73" x2="952.06" y2="702.73"/>
			<line class="st0" x1="368.51" y1="651.39" x2="368.51" y2="704.52"/>
			<line class="st0" x1="391.03" y1="651.39" x2="391.03" y2="704.52"/>
			<line class="st0" x1="413.55" y1="651.39" x2="413.55" y2="704.52"/>
			<line class="st0" x1="436.08" y1="651.39" x2="436.08" y2="704.52"/>
			<line class="st0" x1="458.6" y1="651.39" x2="458.6" y2="704.52"/>
			<line class="st0" x1="481.12" y1="651.39" x2="481.12" y2="704.52"/>
			<line class="st0" x1="503.64" y1="651.39" x2="503.64" y2="704.52"/>
			<line class="st0" x1="526.16" y1="651.39" x2="526.16" y2="704.52"/>
			<line class="st0" x1="548.68" y1="651.39" x2="548.68" y2="704.52"/>
			<line class="st0" x1="571.2" y1="651.39" x2="571.2" y2="704.52"/>
			<line class="st0" x1="700.18" y1="651.39" x2="700.18" y2="704.52"/>
			<line class="st0" x1="722.7" y1="651.39" x2="722.7" y2="704.52"/>
			<line class="st0" x1="745.22" y1="651.39" x2="745.22" y2="704.52"/>
			<line class="st0" x1="767.75" y1="651.39" x2="767.75" y2="704.52"/>
			<line class="st0" x1="790.27" y1="651.39" x2="790.27" y2="704.52"/>
			<line class="st0" x1="812.79" y1="651.39" x2="812.79" y2="704.52"/>
			<line class="st0" x1="835.31" y1="651.39" x2="835.31" y2="704.52"/>
			<line class="st0" x1="857.83" y1="651.39" x2="857.83" y2="704.52"/>
			<line class="st0" x1="880.35" y1="651.39" x2="880.35" y2="704.52"/>
			<line class="st0" x1="902.87" y1="651.39" x2="902.87" y2="704.52"/>
			<line class="st0" x1="925.39" y1="651.39" x2="925.39" y2="704.52"/>
			<line class="st0" x1="947.36" y1="651.39" x2="947.36" y2="704.52"/>
			<line class="st0" x1="966.91" y1="651.39" x2="966.91" y2="704.52"/>
			<line class="st0" x1="575.02" y1="527.49" x2="575.02" y2="661.5"/>
			<line class="st0" x1="695.48" y1="527.49" x2="695.48" y2="661.5"/>
			<polyline class="st0" points="493.93,419.97 479.78,419.97 644,255.75 808.02,419.77 788.25,419.77 			"/>
			<polyline class="st0" points="355.26,431.83 343.51,431.83 479.82,295.52 541.62,357.32 			"/>
			<polyline class="st0" points="925.88,431.83 937.62,431.83 801.31,295.52 743.68,353.15 			"/>
			<line class="st0" x1="605.76" y1="311.61" x2="618.24" y2="311.61"/>
			<line class="st0" x1="612" y1="319.42" x2="624.48" y2="319.42"/>
			<line class="st0" x1="465.86" y1="330.04" x2="478.34" y2="330.04"/>
			<line class="st0" x1="472.1" y1="337.86" x2="484.59" y2="337.86"/>
			<line class="st0" x1="731.58" y1="384.71" x2="744.06" y2="384.71"/>
			<line class="st0" x1="725.34" y1="390.38" x2="737.82" y2="390.38"/>
			<line class="st0" x1="535.8" y1="541.02" x2="548.29" y2="541.02"/>
			<line class="st0" x1="745.06" y1="535.35" x2="757.55" y2="535.35"/>
			<line class="st0" x1="806.15" y1="445.17" x2="818.63" y2="445.17"/>
			<line class="st0" x1="820.86" y1="453.22" x2="833.34" y2="453.22"/>
			<line class="st0" x1="829.07" y1="623.34" x2="841.55" y2="623.34"/>
			<line class="st0" x1="738.82" y1="541.02" x2="751.3" y2="541.02"/>
			<line class="st0" x1="874.11" y1="541.02" x2="886.59" y2="541.02"/>
			<line class="st0" x1="651.83" y1="431.83" x2="664.31" y2="431.83"/>
			<line class="st0" x1="860.96" y1="402.64" x2="873.44" y2="402.64"/>
			<line class="st0" x1="854.72" y1="408.31" x2="867.2" y2="408.31"/>
			<line class="st0" x1="797.47" y1="339.19" x2="809.96" y2="339.19"/>
			<line class="st0" x1="767.13" y1="354.83" x2="779.62" y2="354.83"/>
			<line class="st0" x1="549.32" y1="384.71" x2="561.8" y2="384.71"/>
			<line class="st0" x1="501.39" y1="366.78" x2="513.87" y2="366.78"/>
			<line class="st0" x1="401.39" y1="408.31" x2="413.87" y2="408.31"/>
			<line class="st0" x1="384.79" y1="444.22" x2="397.28" y2="444.22"/>
			<line class="st0" x1="397.28" y1="453.22" x2="409.76" y2="453.22"/>
			<line class="st0" x1="450.31" y1="541.86" x2="462.79" y2="541.86"/>
			<line class="st0" x1="374.76" y1="625.18" x2="387.24" y2="625.18"/>
			<line class="st0" x1="587.88" y1="663.76" x2="587.88" y2="702.69"/>
			<line class="st0" x1="689.07" y1="663.76" x2="689.07" y2="702.69"/>
			<line class="st0" x1="587.88" y1="673.45" x2="689.07" y2="673.45"/>
			<line class="st0" x1="587.88" y1="687.25" x2="689.07" y2="687.25"/>
		</g>
		<g>
			<path class="st0" d="M297.24,676.68h-10.99c-10.23,0-18.26-8.79-17.33-18.98l5.49-60.25c0.82-8.96,8.33-15.82,17.33-15.82l0,0
				c9,0,16.51,6.86,17.33,15.82l5.49,60.25C315.5,667.89,307.48,676.68,297.24,676.68z"/>
			<line class="st1" x1="292.47" y1="660.34" x2="292.47" y2="716.53"/>
		</g>
		<g>
			<path class="st0" d="M1001.38,676.68h-10.99c-10.23,0-18.26-8.79-17.33-18.98l5.49-60.25c0.82-8.96,8.33-15.82,17.33-15.82l0,0
				c9,0,16.51,6.86,17.33,15.82l5.49,60.25C1019.64,667.89,1011.61,676.68,1001.38,676.68z"/>
			<line class="st1" x1="996.61" y1="660.34" x2="996.61" y2="716.53"/>
		</g>
	</g>
	<line class="st0" x1="347.88" y1="720.78" x2="401.76" y2="720.78"/>
	<line class="st0" x1="391.79" y1="740.58" x2="445.66" y2="740.58"/>
	<line class="st0" x1="865.97" y1="720.78" x2="919.84" y2="720.78"/>
	<line class="st0" x1="830.89" y1="740.58" x2="884.76" y2="740.58"/>
	<line class="st0" x1="692.54" y1="723.71" x2="746.41" y2="723.71"/>
</g>
</svg>
